<?xml version="1.0" encoding="utf-8"?>
<!-- Generator: Adobe Illustrator 23.0.1, SVG Export Plug-In . SVG Version: 6.00 Build 0)  -->
<svg version="1.1" id="레이어_1" xmlns="http://www.w3.org/2000/svg" xmlns:xlink="http://www.w3.org/1999/xlink" x="0px"
	 y="0px" viewBox="0 0 380 380" style="enable-background:new 0 0 380 380;" xml:space="preserve">
<style type="text/css">
	.st0{fill-rule:evenodd;clip-rule:evenodd;fill:#FFFFFF;}
</style>
<path id="youtube" class="st0" d="M276.5,136.8c-5.2-9.2-10.7-10.9-22.1-11.5c-11.4-0.8-40-1.1-64.8-1.1c-24.8,0-53.4,0.3-64.8,1.1
	c-11.4,0.7-17,2.3-22.2,11.5c-5.3,9.2-8,24.9-8,52.7v0.1c0,27.6,2.7,43.5,8,52.6c5.2,9.2,10.8,10.8,22.2,11.6
	c11.4,0.7,40,1.1,64.8,1.1c24.8,0,53.4-0.4,64.8-1c11.4-0.8,17-2.4,22.1-11.6c5.4-9.1,8.1-24.9,8.1-52.6v-0.1
	C284.6,161.7,281.9,146,276.5,136.8z M165.9,225.2v-71.3l59.4,35.6L165.9,225.2z"/>
</svg>
