<?xml version="1.0" encoding="utf-8"?>
<!-- Generator: Adobe Illustrator 23.0.1, SVG Export Plug-In . SVG Version: 6.00 Build 0)  -->
<svg version="1.1" id="레이어_1" xmlns="http://www.w3.org/2000/svg" xmlns:xlink="http://www.w3.org/1999/xlink" x="0px"
	 y="0px" viewBox="0 0 380 380" style="enable-background:new 0 0 380 380;" xml:space="preserve">
<style type="text/css">
	.st0{fill-rule:evenodd;clip-rule:evenodd;fill:#FFFFFF;}
</style>
<path id="twitter" class="st0" d="M261,153.7c0.1,1.6,0.1,3.2,0.1,4.8c0,48.8-37.2,105.2-105.1,105.2c-20.1,0-39.7-5.7-56.6-16.6
	c19.5,2.3,39.2-3.2,54.7-15.3c-15.8-0.3-29.7-10.6-34.5-25.7c5.5,1.1,11.2,0.8,16.7-0.6c-17.2-3.5-29.6-18.7-29.6-36.2v-0.5
	c5.1,2.9,10.9,4.4,16.7,4.6c-16.2-10.9-21.2-32.5-11.4-49.3c18.7,23.1,46.4,37.1,76.1,38.6c-4.7-19.9,7.7-39.8,27.6-44.4
	c12.9-3,26.3,1.1,35.4,10.7c8.3-1.6,16.2-4.7,23.5-9c-2.8,8.6-8.5,15.8-16.2,20.5c7.3-0.9,14.5-2.8,21.2-5.8
	C274.5,142,268.2,148.5,261,153.7z"/>
</svg>
