<?xml version="1.0" encoding="utf-8"?>
<!-- Generator: Adobe Illustrator 23.0.1, SVG Export Plug-In . SVG Version: 6.00 Build 0)  -->
<svg version="1.1" id="레이어_1" xmlns="http://www.w3.org/2000/svg" xmlns:xlink="http://www.w3.org/1999/xlink" x="0px"
	 y="0px" viewBox="0 0 380 380" style="enable-background:new 0 0 380 380;" xml:space="preserve">
<style type="text/css">
	.st0{fill:#FFFFFF;}
</style>
<g>
	<rect x="143.3" y="191" class="st0" width="91.7" height="20"/>
	<rect x="143.3" y="220.4" class="st0" width="91.7" height="20"/>
	<path class="st0" d="M271.2,147l-42.4-42.4c-2.8-2.8-6.6-4.4-10.6-4.4h-94.5c-10,0-18.1,8.1-18.1,18.1v146.3c0,8.3,6.7,15,15,15
		h140c8.3,0,15-6.7,15-15v-107C275.6,153.6,274,149.8,271.2,147z M224.5,123.1l27.9,27.9h-25.2c-1.5,0-2.8-1.2-2.8-2.8V123.1z
		 M253.7,256.1c0,2.8-2.3,5.1-5.1,5.1H129.8c-2.8,0-5.1-2.3-5.1-5.1V126.6c0-2.8,2.3-5.1,5.1-5.1h79.8v31.5
		c0,6.2,5.7,12.8,12.8,12.8h31.3V256.1z"/>
</g>
</svg>
