<?xml version="1.0" encoding="utf-8"?>
<!-- Generator: Adobe Illustrator 23.0.1, SVG Export Plug-In . SVG Version: 6.00 Build 0)  -->
<svg version="1.1" id="레이어_1" xmlns="http://www.w3.org/2000/svg" xmlns:xlink="http://www.w3.org/1999/xlink" x="0px"
	 y="0px" viewBox="0 0 380 380" style="enable-background:new 0 0 380 380;" xml:space="preserve">
<style type="text/css">
	.st0{fill-rule:evenodd;clip-rule:evenodd;fill:#FFFFFF;}
</style>
<path id="rss" class="st0" d="M124.3,109.7c12.9,0,26,1.7,38.5,5.2c49.2,13.6,87.5,52.1,101.2,101.2c3.5,12.5,5.2,25.4,5.2,38.5
	c-0.1,8.4-7.1,15.2-15.5,15.1c-8.3-0.1-14.9-6.8-15.1-15.1c0-10.3-1.3-20.5-4.1-30.4c-2.7-9.6-6.5-18.8-11.6-27.3
	c-10-16.9-24-31-41-41c-8.5-5.1-17.7-8.9-27.3-11.6c-9.9-2.8-20.1-4.1-30.4-4.1c-8.4,0-15.2-6.8-15.2-15.2
	C109.1,116.4,115.9,109.7,124.3,109.7L124.3,109.7L124.3,109.7z M128.1,163.5c11.6-0.1,23.2,2.3,33.8,6.9
	c20.9,8.9,37.4,25.6,46.4,46.4c4.7,10.7,6.9,22.2,6.9,33.8c-0.1,8.4-7.1,15.2-15.5,15.1c-8.3-0.1-14.9-6.8-15.1-15.1
	c0-7.6-1.5-15.1-4.5-22.1c-5.7-13.6-16.7-24.4-30.2-30.2c-6.9-2.9-14.5-4.5-22.1-4.5c-8.4,0-15.2-6.8-15.2-15.2
	C112.9,170.3,119.7,163.5,128.1,163.5L128.1,163.5L128.1,163.5z M157.6,244.7c0,3.2-0.7,6.4-1.9,9.5c-1.2,2.8-2.9,5.3-5.1,7.6
	c-4.5,4.5-10.7,6.9-17.1,6.9c-3.2,0-6.4-0.7-9.5-1.9c-5.7-2.4-10.3-6.9-12.7-12.7c-2.5-6-2.5-12.8,0-18.8c1.2-2.8,2.9-5.5,5.1-7.7
	c2.1-2.1,4.8-3.9,7.6-5.1c6-2.5,12.8-2.5,18.8,0C151.8,226.4,157.6,235,157.6,244.7L157.6,244.7L157.6,244.7z"/>
</svg>
